<svg xmlns="http://www.w3.org/2000/svg" width="1600" height="900" viewBox="0 0 1600 900">
<title>图10-5 能力扩散 vs 控制集中</title><desc>《AI主权》原创信息图，v0.1，2026-08-18。纸书黑白和彩色电子版均可使用。</desc>
<rect width="100%" height="100%" fill="#fbfaf7"/>
<style>text{font-family:Noto Sans CJK SC, PingFang SC, sans-serif;fill:#1f2933} .title{font-size:30px;font-weight:700} .label{font-size:20px;font-weight:700} .small{font-size:15px} .tiny{font-size:12px} .box{stroke:#34495e;stroke-width:3;rx:18} .muted{fill:#f0eee8} .accent{fill:#dbeafe} .warm{fill:#fef3c7} .green{fill:#dcfce7} .pink{fill:#fde2e2} .line{stroke:#506273;stroke-width:4;fill:none} .dash{stroke:#8795a1;stroke-width:3;stroke-dasharray:12 10;fill:none}</style>
<defs><marker id="arrow" markerWidth="12" markerHeight="12" refX="10" refY="6" orient="auto"><path d="M0,0 L12,6 L0,12 z" fill="#506273"/></marker></defs><text x="60" y="65" class="title" text-anchor="start">图10-5　能力扩散 vs 控制集中</text><text x="800" y="115" class="label" text-anchor="middle">开放会扩散能力，但不自动消除控制集中</text><text x="60" y="200" class="label" text-anchor="start">能力扩散</text><line x1="80" y1="230" x2="1520" y2="230" class="dash"/><path d="M150,400 C400,360 700,310 900,280 C1100,250 1300,220 1500,210" stroke="#3b82f6" stroke-width="5" fill="none"/><text x="1500" y="200" class="small" text-anchor="start">扩散 ↑</text><text x="60" y="540" class="label" text-anchor="start">控制集中</text><line x1="80" y1="550" x2="1520" y2="550" class="dash"/><path d="M150,720 C400,700 700,660 900,620 C1100,580 1300,560 1500,560" stroke="#ef4444" stroke-width="5" fill="none"/><text x="1500" y="545" class="small" text-anchor="start">集中 →</text><circle cx="450" cy="380" r="10" fill="#3b82f6"/><circle cx="900" cy="290" r="10" fill="#3b82f6"/><circle cx="1300" cy="220" r="10" fill="#3b82f6"/><rect x="60" y="760" width="1480" height="50" class="box muted"/><text x="800.0" y="793.0" class="small" text-anchor="middle">3 个反证节点</text><rect x="60" y="820" width="480" height="60" class="box accent"/><text x="300.0" y="858.0" class="small" text-anchor="middle">基础层</text><rect x="560" y="820" width="480" height="60" class="box warm"/><text x="800.0" y="858.0" class="small" text-anchor="middle">公共品层</text><rect x="1060" y="820" width="480" height="60" class="box muted"/><text x="1300.0" y="858.0" class="small" text-anchor="middle">前沿服务</text>
<text x="60" y="865" class="tiny">原创信息图 · v0.1 · 2026-08-18 · 适配单色印刷</text></svg>