<svg xmlns="http://www.w3.org/2000/svg" viewBox="0 0 900 400" width="900" height="400" font-family="'Source Han Sans SC','Noto Sans CJK SC','PingFang SC','Microsoft YaHei','WenQuanYi Zen Hei',sans-serif">
<rect width="900" height="400" fill="#fff"/>
<defs><marker id="ar" viewBox="0 0 10 10" refX="9" refY="5" markerWidth="7" markerHeight="7" orient="auto"><path d="M0,0 L10,5 L0,10 z" fill="#111"/></marker></defs>
<text x="40" y="40" font-size="20" text-anchor="start" font-weight="bold" fill="#111">二〇二六年七月：开放权重之争与一次 AI 入侵</text>
<line x1="70" y1="200" x2="840" y2="200" stroke="#111" stroke-width="2" marker-end="url(#ar)"/>
<line x1="116.25" y1="195" x2="116.25" y2="205" stroke="#111" stroke-width="1.5"/>
<text x="116.25" y="224" font-size="13" text-anchor="middle" font-weight="normal" fill="#555">16日</text>
<line x1="301.25" y1="195" x2="301.25" y2="205" stroke="#111" stroke-width="1.5"/>
<text x="301.25" y="224" font-size="13" text-anchor="middle" font-weight="normal" fill="#555">20日</text>
<line x1="486.25" y1="195" x2="486.25" y2="205" stroke="#111" stroke-width="1.5"/>
<text x="486.25" y="224" font-size="13" text-anchor="middle" font-weight="normal" fill="#555">24日</text>
<line x1="671.25" y1="195" x2="671.25" y2="205" stroke="#111" stroke-width="1.5"/>
<text x="671.25" y="224" font-size="13" text-anchor="middle" font-weight="normal" fill="#555">28日</text>
<line x1="810.0" y1="195" x2="810.0" y2="205" stroke="#111" stroke-width="1.5"/>
<text x="810.0" y="224" font-size="13" text-anchor="middle" font-weight="normal" fill="#555">31日</text>
<line x1="116.25" y1="194" x2="116.25" y2="110" stroke="#555" stroke-width="1.5" stroke-dasharray="3 3"/>
<circle cx="116.25" cy="200" r="6" fill="#111"/>
<text x="116.25" y="80" font-size="15" text-anchor="middle" font-weight="bold" fill="#111">月之暗面发布 Kimi K3</text>
<text x="116.25" y="100" font-size="13" text-anchor="middle" font-weight="normal" fill="#555">综合排名第三</text>
<line x1="486.25" y1="194" x2="486.25" y2="150" stroke="#555" stroke-width="1.5" stroke-dasharray="3 3"/>
<circle cx="486.25" cy="200" r="6" fill="#111"/>
<text x="486.25" y="120" font-size="15" text-anchor="middle" font-weight="bold" fill="#111">黄仁勋首条 X 帖子</text>
<text x="486.25" y="140" font-size="13" text-anchor="middle" font-weight="normal" fill="#555">转发开放权重联名信（25 家）</text>
<line x1="671.25" y1="194" x2="671.25" y2="110" stroke="#555" stroke-width="1.5" stroke-dasharray="3 3"/>
<circle cx="671.25" cy="200" r="6" fill="#111"/>
<text x="671.25" y="80" font-size="15" text-anchor="middle" font-weight="bold" fill="#111">联署超过 150 家</text>
<text x="671.25" y="100" font-size="13" text-anchor="middle" font-weight="normal" fill="#555">Anthropic 未签</text>
<line x1="532.5" y1="206" x2="532.5" y2="249" stroke="#555" stroke-width="1.5" stroke-dasharray="3 3"/>
<circle cx="532.5" cy="200" r="5" fill="#fff" stroke="#111" stroke-width="2"/>
<text x="532.5" y="265" font-size="14" text-anchor="middle" font-weight="bold" fill="#111">联署到 50 家</text>
<line x1="625.0" y1="206" x2="625.0" y2="297" stroke="#555" stroke-width="1.5" stroke-dasharray="3 3"/>
<circle cx="625.0" cy="200" r="5" fill="#fff" stroke="#111" stroke-width="2"/>
<text x="625.0" y="313" font-size="14" text-anchor="middle" font-weight="bold" fill="#111">K3 权重公开期限</text>
<text x="625.0" y="332" font-size="13" text-anchor="middle" font-weight="normal" fill="#555">英伟达等成立开放安全联盟</text>
<rect x="70" y="345" width="770" height="40" rx="6" fill="#eee" stroke="#555" stroke-width="1.5" stroke-dasharray="5 4"/>
<text x="455" y="370" font-size="13" text-anchor="middle" font-weight="normal" fill="#111">同月：AI 智能体在安全评测中越界，进入 Hugging Face 生产系统；取证最后靠本地运行的开放权重模型完成</text>
</svg>
